# Blender v2.79 (sub 0) OBJ File: 'tank.blend'
# www.blender.org
mtllib Body.mtl
o Body
v 1.947684 0.130729 -1.000001
v 1.947683 0.130729 -1.879833
v 2.380899 0.219255 -1.000001
v 2.380899 0.219255 -1.879833
v 2.688272 0.411159 -1.000001
v 2.688272 0.411159 -1.879833
v 2.972875 0.598425 -1.000001
v 2.972875 0.598425 -1.879833
v 3.143451 0.793181 -1.000001
v 3.143451 0.793181 -1.879833
v 3.189309 1.033480 -1.000001
v 3.189309 1.033480 -1.879833
v 3.137992 1.243664 -1.000001
v 3.137992 1.243664 -1.879833
v 2.931764 1.309046 -1.000001
v 2.931764 1.309046 -1.879833
v -1.620228 0.130729 -1.000000
v -1.620228 0.130729 -1.879832
v -2.053444 0.219255 -1.000000
v -2.053444 0.219255 -1.879832
v -2.360816 0.411159 -1.000000
v -2.360816 0.411159 -1.879832
v -2.645419 0.598425 -1.000000
v -2.645419 0.598425 -1.879832
v -2.815995 0.793181 -1.000000
v -2.815995 0.793181 -1.879832
v -2.861854 1.033480 -1.000000
v -2.861854 1.033480 -1.879832
v -2.810536 1.243664 -1.000000
v -2.810536 1.243664 -1.879832
v -2.604308 1.309046 -1.000000
v -2.604308 1.309046 -1.879832
v 1.947684 0.130729 1.900000
v 1.947684 0.130729 1.020167
v 2.380900 0.219255 1.900000
v 2.380900 0.219255 1.020167
v 2.688272 0.411159 1.899999
v 2.688272 0.411159 1.020167
v 2.972876 0.598425 1.899999
v 2.972876 0.598425 1.020167
v 3.143452 0.793181 1.899999
v 3.143452 0.793181 1.020167
v 3.189310 1.033480 1.899999
v 3.189310 1.033480 1.020167
v 3.137992 1.243665 1.899999
v 3.137992 1.243664 1.020167
v 2.931764 1.309046 1.899999
v 2.931764 1.309046 1.020167
v -1.620227 0.130729 1.900000
v -1.620227 0.130729 1.020168
v -2.053443 0.219255 1.900001
v -2.053443 0.219255 1.020168
v -2.360816 0.411159 1.900001
v -2.360816 0.411159 1.020168
v -2.645419 0.598425 1.900001
v -2.645419 0.598425 1.020168
v -2.815995 0.793181 1.900001
v -2.815995 0.793181 1.020168
v -2.861853 1.033480 1.900001
v -2.861853 1.033480 1.020168
v -2.810535 1.243665 1.900001
v -2.810535 1.243664 1.020168
v -2.604308 1.309046 1.900001
v -2.604308 1.309046 1.020168
v 3.288803 0.775671 0.999999
v 3.288803 0.775671 1.999999
v 3.097643 1.516547 0.999999
v 3.124961 1.476054 1.999999
v 3.275661 0.775671 -2.000001
v 3.275661 0.775671 -1.000001
v 3.124960 1.476054 -2.000001
v 3.097643 1.516547 -1.000001
v -2.971563 0.775670 2.000000
v -2.971562 0.775670 1.000000
v -2.805659 1.366773 2.000000
v -2.805658 1.366773 1.000000
v 1.968681 1.636060 2.000000
v 1.968680 1.636060 -2.000000
v -1.996194 1.636060 2.000000
v -1.996194 1.636060 -2.000000
v -2.971563 0.775670 -1.000000
v -2.971564 0.775670 -2.000000
v -2.805659 1.366773 -1.000000
v -2.805659 1.366773 -2.000000
v -1.996193 2.078302 1.300000
v -1.996193 2.078302 -1.300000
v 2.070009 2.078302 -1.300000
v 2.662194 1.516547 -1.000001
v 2.662195 1.516547 0.999999
v 2.070009 2.078302 1.300000
v 3.035977 0.738774 0.944811
v 3.022835 0.738774 -0.943920
v 2.548140 0.471650 0.999999
v 2.541568 0.471650 -1.000001
v -2.144593 0.468521 -1.000000
v -2.143607 0.468521 1.000000
vt 0.148280 0.415675
vt 0.148280 0.478262
vt 0.116827 0.478262
vt 0.116827 0.415675
vt 0.091051 0.478262
vt 0.091051 0.415675
vt 0.066816 0.478262
vt 0.066816 0.415675
vt 0.048400 0.478262
vt 0.048400 0.415675
vt 0.030997 0.478262
vt 0.030997 0.415675
vt 0.015607 0.478262
vt 0.015607 0.415675
vt 0.000217 0.478262
vt 0.000217 0.415675
vt 0.519421 0.625537
vt 0.488605 0.619240
vt 0.466740 0.605589
vt 0.446495 0.592268
vt 0.434361 0.578414
vt 0.431099 0.561321
vt 0.434749 0.546369
vt 0.449419 0.541718
vt 0.843225 0.541718
vt 0.857895 0.546369
vt 0.861545 0.561321
vt 0.858283 0.578414
vt 0.846149 0.592268
vt 0.825904 0.605589
vt 0.804039 0.619240
vt 0.773223 0.625537
vt 0.402082 0.415675
vt 0.402082 0.478262
vt 0.433535 0.478262
vt 0.433535 0.415675
vt 0.459312 0.478262
vt 0.459312 0.415675
vt 0.483546 0.478262
vt 0.483546 0.415675
vt 0.501963 0.478262
vt 0.501963 0.415675
vt 0.519365 0.478262
vt 0.519365 0.415675
vt 0.534755 0.478262
vt 0.534755 0.415675
vt 0.550145 0.478262
vt 0.550145 0.415675
vt 0.943950 0.478262
vt 0.943950 0.415675
vt 0.018538 0.794047
vt 0.003868 0.789396
vt 0.000217 0.774444
vt 0.003480 0.757351
vt 0.015613 0.743498
vt 0.035858 0.730176
vt 0.057723 0.716525
vt 0.088541 0.710228
vt 0.342342 0.710228
vt 0.373158 0.716525
vt 0.395023 0.730176
vt 0.415268 0.743497
vt 0.427402 0.757351
vt 0.430664 0.774444
vt 0.427014 0.789396
vt 0.412344 0.794047
vt 0.148280 0.478697
vt 0.148280 0.541283
vt 0.116827 0.541283
vt 0.116827 0.478697
vt 0.091050 0.541283
vt 0.091050 0.478697
vt 0.066816 0.541283
vt 0.066816 0.478697
vt 0.048400 0.541283
vt 0.048400 0.478697
vt 0.030998 0.541283
vt 0.030998 0.478697
vt 0.015607 0.541283
vt 0.015607 0.478697
vt 0.000217 0.541283
vt 0.000217 0.478697
vt 0.088540 0.625538
vt 0.057723 0.619240
vt 0.035859 0.605589
vt 0.015613 0.592268
vt 0.003479 0.578414
vt 0.000217 0.561320
vt 0.003868 0.546369
vt 0.018538 0.541718
vt 0.412344 0.541720
vt 0.427013 0.546371
vt 0.430664 0.561322
vt 0.427402 0.578415
vt 0.415268 0.592269
vt 0.395023 0.605590
vt 0.373158 0.619241
vt 0.342341 0.625538
vt 0.402082 0.478697
vt 0.402082 0.541283
vt 0.433535 0.541283
vt 0.433535 0.478697
vt 0.459311 0.541283
vt 0.459311 0.478697
vt 0.483546 0.541283
vt 0.483546 0.478697
vt 0.501962 0.541283
vt 0.501962 0.478697
vt 0.519364 0.541283
vt 0.519364 0.478697
vt 0.534755 0.541283
vt 0.534755 0.478697
vt 0.550144 0.541283
vt 0.550144 0.478697
vt 0.943950 0.541283
vt 0.943950 0.478697
vt 0.018538 0.709793
vt 0.003868 0.705142
vt 0.000217 0.690190
vt 0.003480 0.673097
vt 0.015613 0.659243
vt 0.035859 0.645922
vt 0.057723 0.632271
vt 0.088541 0.625973
vt 0.342342 0.625974
vt 0.373158 0.632271
vt 0.395023 0.645922
vt 0.415268 0.659243
vt 0.427401 0.673097
vt 0.430664 0.690190
vt 0.427013 0.705142
vt 0.412343 0.709793
vt 0.140648 0.836662
vt 0.083579 0.879269
vt 0.053172 0.834400
vt 0.112050 0.794482
vt 0.462637 0.117453
vt 0.469054 0.060808
vt 0.532646 0.060489
vt 0.537597 0.134314
vt 0.185476 0.351657
vt 0.189090 0.293202
vt 0.459180 0.296300
vt 0.465122 0.353984
vt 0.530335 0.355449
vt 0.536992 0.280200
vt 0.582849 0.282291
vt 0.577410 0.359100
vt 0.188409 0.904587
vt 0.101426 0.904587
vt 0.578625 0.057823
vt 0.582967 0.132714
vt 0.108418 0.049539
vt 0.097806 0.000217
vt 0.537742 0.000218
vt 0.526059 0.041844
vt 0.189844 0.060807
vt 0.091862 0.411567
vt 0.103829 0.362264
vt 0.522056 0.373452
vt 0.533410 0.415240
vt 0.274408 0.809420
vt 0.307040 0.872724
vt 0.262682 0.898226
vt 0.227227 0.836557
vt 0.131547 0.280278
vt 0.192603 0.120744
vt 0.130579 0.132721
vt 0.099420 0.280488
vt 0.098453 0.132932
vt 0.379733 0.832592
vt 0.301543 0.794482
vt 0.219700 0.819554
vt 0.041831 0.276798
vt 0.040832 0.137448
vt 0.038754 0.846164
vt 0.188844 0.794482
vt 0.648943 0.132766
vt 0.648894 0.282343
vt 0.999413 0.133053
vt 0.999783 0.282630
vt 0.000800 0.280913
vt 0.000217 0.133354
vt 0.000217 0.854159
vn 0.2002 -0.9798 -0.0000
vn 0.5296 -0.8483 0.0000
vn 0.5497 -0.8354 0.0000
vn 0.7523 -0.6589 0.0000
vn 0.9823 -0.1875 0.0000
vn 0.9715 0.2372 0.0000
vn 0.3022 0.9532 0.0000
vn 0.0000 -0.0000 1.0000
vn 0.2002 0.9798 -0.0000
vn 0.5296 0.8483 -0.0000
vn 0.5497 0.8354 -0.0000
vn 0.7523 0.6589 -0.0000
vn 0.9823 0.1875 0.0000
vn 0.9715 -0.2372 0.0000
vn 0.3022 -0.9532 0.0000
vn 0.0000 -1.0000 -0.0000
vn -0.0000 1.0000 -0.0000
vn -0.0000 0.0000 -1.0000
vn 0.9749 0.2224 0.0088
vn -0.5348 0.8177 -0.2127
vn 0.0000 0.8454 0.5341
vn -0.9628 0.2702 -0.0000
vn 0.1000 0.9950 0.0060
vn -0.5348 0.8177 0.2127
vn 0.9709 0.2392 -0.0084
vn 0.7253 0.5298 0.4397
vn -0.6602 0.7511 0.0000
vn 0.6882 0.7255 -0.0000
vn 0.7253 0.5298 -0.4397
vn 0.1000 0.9950 -0.0060
vn -0.0000 0.8454 -0.5341
vn 0.2056 0.0530 -0.9772
vn 0.9962 -0.0874 -0.0034
vn 0.2093 0.0503 0.9766
vn 0.2528 -0.6158 -0.7463
vn -0.3480 -0.9375 0.0001
vn 0.0007 -1.0000 -0.0000
vn 0.4828 -0.8757 -0.0024
vn 0.2552 -0.6162 0.7451
usemtl UV_texture
s off
f 1/1/1 2/2/1 4/3/1 3/4/1
f 3/4/2 4/3/2 6/5/2 5/6/2
f 5/6/3 6/5/3 8/7/3 7/8/3
f 7/8/4 8/7/4 10/9/4 9/10/4
f 9/10/5 10/9/5 12/11/5 11/12/5
f 11/12/6 12/11/6 14/13/6 13/14/6
f 13/14/7 14/13/7 16/15/7 15/16/7
f 1/17/8 3/18/8 5/19/8 7/20/8 9/21/8 11/22/8 13/23/8 15/24/8 31/25/8 29/26/8 27/27/8 25/28/8 23/29/8 21/30/8 19/31/8 17/32/8
f 17/33/9 18/34/9 20/35/9 19/36/9
f 19/36/10 20/35/10 22/37/10 21/38/10
f 21/38/11 22/37/11 24/39/11 23/40/11
f 23/40/12 24/39/12 26/41/12 25/42/12
f 25/42/13 26/41/13 28/43/13 27/44/13
f 27/44/14 28/43/14 30/45/14 29/46/14
f 29/46/15 30/45/15 32/47/15 31/48/15
f 2/2/16 1/1/16 17/33/16 18/34/16
f 16/49/17 32/47/17 31/48/17 15/50/17
f 16/51/18 14/52/18 12/53/18 10/54/18 8/55/18 6/56/18 4/57/18 2/58/18 18/59/18 20/60/18 22/61/18 24/62/18 26/63/18 28/64/18 30/65/18 32/66/18
f 33/67/1 34/68/1 36/69/1 35/70/1
f 35/70/2 36/69/2 38/71/2 37/72/2
f 37/72/3 38/71/3 40/73/3 39/74/3
f 39/74/4 40/73/4 42/75/4 41/76/4
f 41/76/5 42/75/5 44/77/5 43/78/5
f 43/78/6 44/77/6 46/79/6 45/80/6
f 45/80/7 46/79/7 48/81/7 47/82/7
f 33/83/8 35/84/8 37/85/8 39/86/8 41/87/8 43/88/8 45/89/8 47/90/8 63/91/8 61/92/8 59/93/8 57/94/8 55/95/8 53/96/8 51/97/8 49/98/8
f 49/99/9 50/100/9 52/101/9 51/102/9
f 51/102/10 52/101/10 54/103/10 53/104/10
f 53/104/11 54/103/11 56/105/11 55/106/11
f 55/106/12 56/105/12 58/107/12 57/108/12
f 57/108/13 58/107/13 60/109/13 59/110/13
f 59/110/14 60/109/14 62/111/14 61/112/14
f 61/112/15 62/111/15 64/113/15 63/114/15
f 34/68/16 33/67/16 49/99/16 50/100/16
f 48/115/17 64/113/17 63/114/17 47/116/17
f 48/117/18 46/118/18 44/119/18 42/120/18 40/121/18 38/122/18 36/123/18 34/124/18 50/125/18 52/126/18 54/127/18 56/128/18 58/129/18 60/130/18 62/131/18 64/132/18
f 71/133/19 72/134/19 70/135/19 69/136/19
f 86/137/20 80/138/20 84/139/20 83/140/20
f 77/141/21 90/142/21 85/143/21 79/144/21
f 75/145/22 76/146/22 74/147/22 73/148/22
f 71/133/23 78/149/23 88/150/23 72/134/23
f 83/140/22 84/139/22 82/151/22 81/152/22
f 85/143/24 76/146/24 75/145/24 79/144/24
f 71/153/18 69/154/18 82/155/18 84/156/18 80/138/18 78/157/18
f 66/158/8 68/159/8 77/141/8 79/144/8 75/160/8 73/161/8
f 67/162/25 68/163/25 66/164/25 65/165/25
f 90/142/26 77/141/26 89/166/26
f 85/143/27 86/137/27 83/140/27 76/146/27
f 87/167/28 90/142/28 89/166/28 88/168/28
f 67/169/17 72/170/17 88/168/17 89/166/17
f 87/167/29 88/168/29 78/157/29
f 77/171/30 68/163/30 67/162/30 89/172/30
f 78/157/31 80/138/31 86/137/31 87/167/31
f 86/137/17 85/143/17 90/142/17 87/167/17
f 76/146/22 83/140/22 81/152/22 74/147/22
f 65/165/32 91/173/32 67/162/32
f 67/169/33 91/174/33 92/175/33 72/170/33
f 72/134/34 92/176/34 70/135/34
f 65/165/35 93/177/35 91/173/35
f 95/178/36 96/179/36 74/147/36 81/152/36
f 94/180/37 93/181/37 96/179/37 95/178/37
f 91/174/38 93/182/38 94/183/38 92/175/38
f 92/176/39 94/184/39 70/135/39
