# Blender v2.79 (sub 0) OBJ File: 'crate.blend'
# www.blender.org
mtllib crate.mtl
o Cube
v 4.000000 0.466506 -7.000000
v 4.000000 0.466506 7.000000
v -4.000000 0.466506 6.999999
v -3.999999 0.466506 -7.000002
v 4.000002 7.666505 -6.999996
v 3.999997 7.666505 7.000004
v -4.000001 7.666505 6.999998
v -4.000000 7.666505 -7.000000
v 4.000000 0.466506 -7.000000
v 4.000000 0.466506 7.000000
v -4.000000 0.466506 6.999999
v -3.999999 0.466506 -7.000002
v 4.000002 7.666505 -6.999996
v 3.999997 7.666505 7.000004
v -4.000001 7.666505 6.999998
v -4.000000 7.666505 -7.000000
v -4.361041 0.466506 6.999999
v -4.361040 7.666505 -7.000000
v -4.000000 0.466506 6.999999
v -4.000000 7.666505 -7.000000
v -4.361041 0.466506 6.999999
v -4.361040 7.666505 -7.000000
v -4.000000 1.411682 7.003676
v -4.000000 7.677410 -6.513909
v -4.361041 1.411682 7.003676
v -4.361040 7.677410 -6.513909
v -4.000000 0.473146 6.535537
v -4.000000 6.763385 -7.004388
v -4.361041 0.473146 6.535537
v -4.361040 6.763385 -7.004388
v -4.358535 0.466506 -7.000002
v -4.358536 6.763385 -7.004388
v -4.000000 6.447734 -6.315840
v -3.999999 0.466985 -6.311454
v -4.358536 6.447734 -6.315840
v -4.358535 0.466985 -6.311454
v -4.354533 7.666505 6.999998
v -4.354532 1.411682 7.003676
v -4.000000 1.756777 6.267481
v -4.000001 7.666072 6.263802
v -4.354532 1.756777 6.267481
v -4.354533 7.666072 6.263802
v -4.000000 7.677410 -6.513909
v -4.361040 7.677410 -6.513909
v -4.361041 0.473146 6.535537
v -4.000000 0.473146 6.535537
v -3.999999 0.466985 -6.311454
v -4.358535 0.466985 -6.311454
v -4.000001 7.666072 6.263802
v -4.354533 7.666072 6.263802
v -4.361041 1.076947 5.232307
v -4.000000 1.076947 5.232307
v -3.999999 1.070786 -6.311743
v -4.358535 1.070786 -6.311743
v -4.000000 6.959378 -4.968293
v -4.361040 6.959378 -4.968293
v -4.000001 6.948040 6.263165
v -4.354533 6.948040 6.263165
vn 0.0000 1.0000 0.0000
vn 0.0000 -1.0000 -0.0000
vn 1.0000 0.0000 0.0000
vn 0.0000 0.0000 -1.0000
vn -0.0000 -0.0000 1.0000
vn 0.0000 -0.0007 -1.0000
vn 0.0000 0.9073 0.4205
vn 0.0000 -0.9069 -0.4213
vn 0.0000 -0.9090 -0.4167
vn 0.0000 0.0006 1.0000
vn 0.0000 0.9055 0.4244
vn 1.0000 -0.0006 -0.0005
vn 0.0000 -1.0000 0.0005
vn 0.0000 -0.9073 -0.4204
vn 1.0000 0.0002 0.0002
vn 0.0000 0.0005 1.0000
vn 0.0000 1.0000 0.0010
vn 0.0000 0.0009 -1.0000
vn 0.0000 0.9069 0.4213
vn -1.0000 -0.0000 -0.0000
usemtl Material
s off
f 1//1 4//1 3//1 2//1
f 5//2 6//2 7//2 8//2
f 27//3 12//3 28//3
f 2//4 3//4 7//4 6//4
f 5//5 8//5 4//5 1//5
f 9//2 10//2 11//2 12//2
f 13//1 16//1 15//1 14//1
f 24//3 15//3 23//3
f 10//5 14//5 15//5 11//5
f 13//4 9//4 12//4 16//4
f 33//6 34//6 36//6 35//6
f 16//5 18//5 22//5 20//5
f 17//5 11//5 19//5 21//5
f 11//5 16//5 20//5 19//5
f 23//7 24//7 26//7 25//7
f 19//3 20//3 24//3 23//3
f 27//8 29//8 30//8 28//8
f 21//1 19//1 12//1 31//1
f 20//3 19//3 27//3 28//3
f 32//9 28//9 33//9 35//9
f 31//3 32//3 35//3 36//3
f 20//1 22//1 37//1 15//1
f 39//10 40//10 42//10 41//10
f 38//11 23//11 39//11 41//11
f 37//3 38//3 41//3 42//3
f 19//4 21//4 37//4 15//4
f 20//5 22//5 31//5 12//5
f 40//5 24//5 43//5 49//5
f 29//5 36//5 48//5 45//5
f 44//12 50//12 58//12 56//12
f 27//5 29//5 45//5 46//5
f 34//5 27//5 46//5 47//5
f 26//5 42//5 50//5 44//5
f 24//5 26//5 44//5 43//5
f 36//5 34//5 47//5 48//5
f 42//5 40//5 49//5 50//5
f 52//13 51//13 54//13 53//13
f 46//14 45//14 51//14 52//14
f 45//15 48//15 54//15 51//15
f 48//16 47//16 53//16 54//16
f 55//17 56//17 58//17 57//17
f 50//18 49//18 57//18 58//18
f 43//19 44//19 56//19 55//19
f 21//20 25//20 26//20 22//20 30//20 29//20
