# Blender v2.79 (sub 0) OBJ File: 'track.blend'
# www.blender.org
mtllib track.mtl
o Cube
v 8.000000 0.000000 -8.000000
v 8.000000 0.000000 8.000000
v -8.000001 0.000000 7.999999
v -7.999997 0.000000 -8.000003
v 8.000004 1.000000 -7.999996
v 7.999995 1.000000 8.000005
v -8.000003 1.000000 7.999997
v -8.000000 1.000000 -8.000000
v 7.999999 0.775964 0.000004
v 0.000002 1.000000 -7.999998
v -0.000004 1.000000 8.000001
v -8.000001 0.775964 -0.000001
v -0.000001 0.775964 0.000001
v 7.999997 1.000000 4.000004
v -3.999999 1.000000 -7.999999
v -4.000004 1.000000 7.999999
v -8.000000 1.000000 -4.000001
v 8.000002 1.000000 -3.999996
v 4.000003 1.000000 -7.999997
v 3.999995 1.000000 8.000003
v -8.000002 1.000000 3.999998
v -0.000003 0.923608 4.000001
v 0.000000 1.348829 -3.999998
v 3.999999 0.775964 0.000003
v -3.537514 0.775964 -0.214910
v -4.000000 1.672559 -4.000000
v 4.000001 1.501067 -3.999997
v 3.999997 1.458817 4.000003
v -4.000002 1.314727 4.000000
v 7.999996 1.000000 6.000005
v -5.999999 1.000000 -8.000000
v -6.000003 1.000000 7.999998
v -8.000000 1.000000 -6.000000
v 8.000000 0.775964 -1.999996
v 2.000002 1.000000 -7.999998
v 1.999995 1.000000 8.000002
v -8.000002 0.775964 1.999998
v -0.000004 0.942045 6.000001
v -0.000000 0.775964 -1.999998
v 5.999999 0.775964 0.000004
v -1.768757 0.775964 -0.107454
v 7.999998 1.000000 2.000004
v -1.999999 1.000000 -7.999999
v -2.000004 1.000000 8.000000
v -8.000000 0.775964 -2.000001
v 8.000003 1.000000 -5.999996
v 6.000003 1.000000 -7.999996
v 5.999995 1.000000 8.000004
v -8.000002 1.000000 5.999998
v -0.000002 0.775964 2.000001
v 0.000001 1.174415 -5.999998
v 1.999999 0.775964 0.000002
v -5.768757 0.775964 -0.107456
v -3.768757 1.468557 -2.107455
v -4.000000 1.398862 -5.999999
v -2.000000 1.468268 -3.999999
v -6.000000 1.398862 -4.000000
v 4.000000 1.359087 -1.999997
v 4.000002 1.250533 -5.999997
v 6.000001 1.250533 -3.999996
v 2.000000 1.424948 -3.999998
v 3.999996 1.229409 6.000003
v 3.999998 0.775964 2.000003
v 5.999997 1.229409 4.000004
v 1.999997 1.171453 4.000002
v -4.000003 1.183966 5.999999
v -3.768758 0.775964 1.892545
v -2.000003 1.126011 4.000000
v -6.000002 1.183966 3.999999
v -5.884379 0.775964 1.946271
v -1.884380 0.775964 1.946273
v -2.000003 1.063005 6.000000
v 1.999998 1.182358 2.000002
v 5.999998 0.775964 2.000004
v 5.999996 1.114704 6.000004
v 2.000001 1.212474 -5.999998
v 6.000002 1.125267 -5.999996
v 6.000000 0.775964 -1.999996
v -6.000000 1.199431 -6.000000
v -1.999999 1.286638 -5.999999
v -1.884379 0.775964 -2.053727
v -5.884378 0.775964 -2.053728
v 2.000000 0.775964 -1.999998
v 1.999996 1.085726 6.000002
v -6.000003 1.091983 5.999998
v 7.999995 1.000000 7.000005
v -6.999999 1.000000 -8.000000
v -7.000003 1.000000 7.999998
v -8.000000 1.000000 -7.000000
v 8.000000 0.775964 -0.999996
v 1.000002 1.000000 -7.999998
v 0.999996 1.000000 8.000002
v -8.000002 0.775964 0.999998
v -0.000004 0.971022 7.000001
v -0.000001 0.775964 -0.999998
v 6.999999 0.775964 0.000004
v -0.884379 0.775964 -0.053726
v 7.999998 1.000000 3.000004
v -2.999999 1.000000 -7.999999
v -3.000004 1.000000 8.000000
v -8.000000 1.000000 -3.000001
v 8.000002 1.000000 -4.999996
v 5.000003 1.000000 -7.999997
v 4.999995 1.000000 8.000004
v -8.000002 1.000000 4.999998
v -0.000002 0.999522 3.000001
v 0.000001 1.261622 -4.999998
v 2.999999 0.775964 0.000003
v -4.653135 0.775964 -0.161183
v -3.653135 0.775964 -1.161182
v -4.000000 1.551619 -4.999999
v -1.000000 1.385994 -3.999999
v -5.000000 1.569785 -4.000000
v 4.000000 0.775964 -0.999997
v 4.000001 1.375800 -4.999997
v 7.000002 1.125267 -3.999996
v 3.000001 1.463007 -3.999997
v 3.999996 1.114704 7.000003
v 3.999998 0.775964 3.000003
v 6.999997 1.114704 4.000004
v 2.999997 1.315135 4.000002
v -4.000003 1.091983 6.999999
v -3.884380 0.775964 2.946272
v -1.000003 1.005050 4.000000
v -5.000002 1.275949 3.999999
v 7.999997 1.000000 5.000005
v -4.999999 1.000000 -7.999999
v -5.000004 1.000000 7.999999
v -8.000000 1.000000 -5.000001
v 8.000001 1.000000 -2.999996
v 3.000003 1.000000 -7.999997
v 2.999995 1.000000 8.000002
v -8.000002 1.000000 2.999998
v -0.000003 0.913067 5.000001
v -0.000000 1.303976 -2.999998
v 4.999999 0.775964 0.000003
v -2.653136 0.775964 -0.161182
v 7.999999 0.775964 1.000004
v -0.999998 1.000000 -7.999998
v -1.000004 1.000000 8.000000
v -8.000000 0.775964 -1.000001
v 8.000004 1.000000 -6.999996
v 7.000004 1.000000 -7.999996
v 6.999995 1.000000 8.000004
v -8.000002 1.000000 6.999997
v -0.000002 0.775964 1.000001
v 0.000002 1.087207 -6.999998
v 0.999999 0.775964 0.000002
v -6.884379 0.775964 -0.053729
v -3.884378 1.673402 -3.053727
v -3.999999 1.199431 -6.999999
v -3.000000 1.614409 -3.999999
v -7.000000 1.199431 -4.000000
v 4.000000 1.430077 -2.999997
v 4.000002 1.125267 -6.999997
v 5.000001 1.375800 -3.999997
v 1.000000 1.386888 -3.999998
v 3.999997 1.344113 5.000003
v 3.999999 0.775964 1.000003
v 4.999997 1.344113 4.000003
v 0.999997 1.027771 4.000001
v -4.000003 1.275949 4.999999
v -3.653136 0.775964 0.838817
v -3.000002 1.246971 4.000000
v -7.000002 1.091983 3.999998
v -5.942191 0.775964 2.973135
v -5.826569 0.775964 0.919408
v -4.826569 0.775964 1.919408
v -6.942191 0.775964 1.973135
v -1.942191 1.116961 2.973136
v -1.826569 0.775964 0.919409
v -0.942191 0.775964 1.973137
v -2.826569 0.775964 1.919409
v -2.000004 1.031503 7.000000
v -2.000003 1.094508 5.000000
v -1.000003 1.002525 6.000000
v -3.000003 1.123486 6.000000
v 1.999998 1.176905 3.000002
v 1.999998 0.775964 1.000002
v 2.999998 0.775964 2.000002
v 0.999998 1.104556 2.000001
v 5.999998 0.775964 3.000004
v 5.999999 0.775964 1.000004
v 6.999998 0.775964 2.000004
v 4.999998 0.775964 2.000003
v 5.999996 1.057352 7.000004
v 5.999997 1.172056 5.000004
v 6.999996 1.057352 6.000004
v 4.999996 1.172056 6.000003
v 2.000001 1.318711 -4.999998
v 2.000002 1.106237 -6.999998
v 3.000002 1.231504 -5.999997
v 1.000001 1.193444 -5.999998
v 6.000002 1.187900 -4.999996
v 6.000003 1.062633 -6.999996
v 7.000003 1.062633 -5.999996
v 5.000002 1.187900 -5.999997
v 6.000000 0.775964 -0.999996
v 6.000001 1.215038 -2.999996
v 7.000000 0.775964 -1.999996
v 5.000000 0.775964 -1.999997
v -6.000000 1.299146 -5.000000
v -5.999999 1.099715 -7.000000
v -5.000000 1.299146 -6.000000
v -7.000000 1.099715 -6.000000
v -2.000000 1.429957 -4.999999
v -1.999999 1.143319 -6.999999
v -0.999999 1.230526 -5.999999
v -2.999999 1.342750 -5.999999
v -1.826568 0.775964 -1.080590
v -1.942189 1.452410 -3.026863
v -0.942190 0.775964 -2.026863
v -2.826568 0.775964 -2.080591
v -5.826568 0.775964 -1.080592
v -5.942189 1.328164 -3.026864
v -4.826568 1.362203 -2.080591
v -6.942189 0.775964 -2.026865
v 1.999999 0.775964 -0.999998
v 2.000000 1.367026 -2.999998
v 3.000000 0.775964 -1.999997
v 1.000000 0.775964 -1.999998
v 1.999996 1.042863 7.000002
v 1.999997 1.128590 5.000002
v 2.999996 1.157568 6.000002
v 0.999996 1.013886 6.000001
v -6.000003 1.045991 6.999998
v -6.000002 1.137975 4.999998
v -5.000003 1.137975 5.999999
v -7.000002 1.045991 5.999998
v -7.000002 1.068987 4.999998
v -5.000002 1.206962 4.999999
v -5.000003 1.068987 6.999999
v 0.999997 1.020828 5.000001
v 2.999997 1.236351 5.000002
v 2.999996 1.078784 7.000002
v 1.000000 1.335501 -2.999998
v 3.000000 1.398551 -2.999997
v 3.000000 0.775964 -0.999997
v -6.971095 1.150211 -3.013433
v -4.913284 1.534668 -3.040296
v -4.739851 0.775964 -1.120887
v -2.913284 1.603618 -3.040295
v -0.971095 1.378193 -3.013431
v -0.913284 0.775964 -1.040295
v -2.999999 1.171375 -6.999999
v -0.999999 1.115263 -6.999998
v -0.999999 1.345789 -4.999999
v -7.000000 1.049858 -7.000000
v -4.999999 1.149573 -6.999999
v -5.000000 1.448720 -5.000000
v 5.000000 1.322557 -2.999997
v 7.000001 1.107519 -2.999996
v 7.000000 0.775964 -0.999996
v 5.000002 1.093950 -6.999997
v 7.000003 1.031317 -6.999996
v 7.000002 1.093950 -4.999996
v 1.000002 1.096722 -6.999998
v 3.000002 1.115752 -6.999997
v 3.000001 1.347255 -4.999997
v 4.999997 1.258085 5.000003
v 6.999997 1.086028 5.000004
v 6.999996 1.028676 7.000004
v 4.999999 0.775964 1.000003
v 6.999999 0.775964 1.000004
v 6.999998 1.099597 3.000004
v 0.999998 0.775964 1.000002
v 2.999999 0.775964 1.000002
v 2.999998 1.287647 3.000002
v -3.000003 1.185228 5.000000
v -1.000003 1.003788 5.000000
v -1.000004 1.001263 7.000000
v -2.739852 0.775964 0.879113
v -0.913285 0.775964 0.959705
v -0.971097 1.036191 2.986569
v -6.913285 0.775964 0.959703
v -4.739852 0.775964 0.879113
v -4.913285 0.775964 2.959703
v -6.971096 1.069625 2.986567
v -2.913286 1.197731 2.959704
v -3.000003 1.061743 7.000000
v 0.999998 1.066164 3.000001
v 4.999998 0.775964 3.000003
v 4.999996 1.086028 7.000004
v 1.000001 1.290166 -4.999998
v 5.000001 1.281850 -4.999997
v 5.000000 0.775964 -0.999997
v -7.000000 1.149573 -5.000000
v -3.000000 1.468035 -4.999999
v -2.739851 0.775964 -1.120886
v -6.913284 0.775964 -1.040297
v 0.999999 0.775964 -0.999998
v 0.999996 1.006943 7.000002
v -7.000003 1.022996 6.999998
vn -0.0115 0.9999 0.0115
vn -0.0180 0.9998 -0.0110
vn 0.0701 0.9887 -0.1322
vn -0.1719 0.9848 -0.0246
vn 0.1083 0.9882 -0.1083
vn -0.0331 0.9953 -0.0915
vn 0.0143 0.9949 0.0999
vn 0.0486 0.8468 -0.5297
vn -0.0850 0.9948 0.0569
vn 0.0151 0.9969 0.0766
vn -0.1678 0.9448 -0.2815
vn -0.0795 0.9968 -0.0122
vn -0.0441 0.9135 -0.4044
vn 0.1017 0.9947 0.0151
vn 0.0151 0.9998 0.0164
vn 0.0754 0.9970 0.0163
vn 0.0752 0.9942 0.0764
vn -0.1262 0.9919 -0.0109
vn 0.1953 0.9611 -0.1953
vn -0.1600 0.9741 -0.1600
vn -0.1012 0.9686 -0.2269
vn 0.0143 0.9990 0.0430
vn 0.0714 0.9965 0.0429
vn 0.0712 0.9925 0.0996
vn -0.0331 0.9934 -0.1103
vn -0.0142 0.9938 -0.1103
vn -0.0142 0.9957 -0.0916
vn 0.1088 0.9930 -0.0466
vn 0.0469 0.9978 -0.0469
vn 0.0466 0.9930 -0.1088
vn 0.0501 0.9320 0.3591
vn 0.3133 0.9074 0.2802
vn -0.1573 0.9816 -0.1084
vn -0.0740 0.9896 -0.1233
vn -0.0746 0.9969 -0.0249
vn 0.0829 0.9958 -0.0391
vn 0.0417 0.9909 -0.1281
vn 0.0413 0.9824 -0.1821
vn 0.0210 0.8377 0.5457
vn 0.3277 0.8448 0.4229
vn -0.3263 0.8768 0.3531
vn -0.0632 0.9554 0.2886
vn -0.0135 0.8548 0.5187
vn -0.0138 0.8784 0.4777
vn -0.0179 0.9980 0.0607
vn -0.0893 0.9942 0.0605
vn -0.0894 0.9959 -0.0110
vn -0.0115 0.9983 0.0574
vn -0.0573 0.9967 0.0573
vn -0.0574 0.9983 0.0115
vn -0.0574 0.9978 0.0344
vn -0.0802 0.9962 0.0344
vn -0.0802 0.9967 0.0115
vn -0.0572 0.9951 0.0801
vn -0.0537 0.9971 0.0537
vn -0.0801 0.9951 0.0572
vn -0.0115 0.9967 0.0802
vn -0.0344 0.9962 0.0802
vn -0.0344 0.9978 0.0574
vn -0.0894 0.9957 0.0248
vn -0.1247 0.9919 0.0247
vn -0.1054 0.9944 0.0087
vn -0.0890 0.9914 0.0959
vn -0.1242 0.9876 0.0955
vn -0.1245 0.9904 0.0602
vn -0.0179 0.9952 0.0963
vn -0.0536 0.9939 0.0962
vn -0.0537 0.9967 0.0606
vn -0.0137 0.8667 0.4986
vn -0.0347 0.9979 0.0545
vn -0.0347 0.9982 0.0480
vn -0.2788 0.9073 0.3147
vn -0.0347 0.9971 0.0675
vn -0.0347 0.9975 0.0610
vn -0.2695 0.9245 0.2695
vn -0.0685 0.9008 0.4289
vn -0.1820 0.9809 0.0681
vn -0.1696 0.9851 0.0269
vn -0.1103 0.9727 0.2043
vn -0.1179 0.9926 0.0304
vn -0.1820 0.9810 0.0673
vn -0.0236 0.8290 0.5587
vn -0.2430 0.9231 0.2981
vn 0.0496 0.7900 0.6111
vn 0.1491 0.9888 0.0025
vn 0.0648 0.9979 -0.0017
vn 0.0233 0.8691 0.4941
vn 0.0562 0.9981 0.0256
vn 0.0791 0.9968 0.0085
vn 0.0415 0.9870 -0.1553
vn 0.0139 0.9878 -0.1554
vn 0.0138 0.9832 -0.1823
vn 0.0418 0.9940 -0.1006
vn 0.0140 0.9948 -0.1007
vn 0.0139 0.9916 -0.1282
vn 0.0604 0.9962 -0.0635
vn 0.0696 0.9925 -0.1005
vn 0.0694 0.9894 -0.1279
vn -0.0744 0.9945 -0.0744
vn -0.0249 0.9969 -0.0746
vn -0.0249 0.9994 -0.0249
vn -0.0735 0.9825 -0.1714
vn -0.0246 0.9848 -0.1719
vn -0.0247 0.9920 -0.1236
vn -0.1016 0.9876 -0.1195
vn -0.0997 0.9838 -0.1487
vn -0.1228 0.9848 -0.1228
vn 0.0482 0.8959 0.4416
vn 0.1155 0.9923 0.0440
vn 0.1154 0.9914 0.0616
vn 0.0517 0.9622 0.2673
vn 0.1156 0.9933 0.0088
vn 0.1156 0.9929 0.0264
vn 0.0468 0.9959 -0.0780
vn 0.0156 0.9968 -0.0780
vn 0.0156 0.9939 -0.1089
vn 0.0469 0.9988 -0.0156
vn 0.0157 0.9998 -0.0157
vn 0.0156 0.9988 -0.0469
vn 0.1089 0.9939 -0.0156
vn 0.0780 0.9968 -0.0156
vn 0.0780 0.9959 -0.0468
vn -0.0142 0.9948 -0.1010
vn -0.0047 0.9949 -0.1010
vn -0.0047 0.9958 -0.0916
vn -0.0142 0.9927 -0.1196
vn -0.0047 0.9928 -0.1196
vn -0.0047 0.9939 -0.1103
vn -0.0330 0.9923 -0.1196
vn -0.0236 0.9925 -0.1196
vn -0.0236 0.9936 -0.1103
vn 0.0713 0.9949 0.0713
vn 0.0996 0.9925 0.0712
vn 0.0994 0.9901 0.0994
vn 0.0715 0.9973 0.0143
vn 0.0999 0.9949 0.0143
vn 0.0998 0.9941 0.0428
vn 0.0143 0.9998 0.0143
vn 0.0430 0.9990 0.0143
vn 0.0429 0.9982 0.0429
vn -0.1106 0.9877 -0.1106
vn 0.1065 0.9943 -0.0075
vn -0.0613 0.9853 -0.1594
vn -0.1577 0.9748 -0.1577
vn -0.0365 0.9380 -0.3447
vn 0.1708 0.9285 -0.3298
vn 0.2406 0.9403 -0.2406
vn 0.1419 0.9596 -0.2429
vn 0.0753 0.9961 0.0464
vn 0.1051 0.9934 0.0463
vn 0.0789 0.9956 0.0500
vn 0.0754 0.9971 -0.0138
vn 0.0858 0.9963 0.0059
vn 0.1052 0.9943 0.0163
vn 0.0151 0.9998 -0.0139
vn 0.0453 0.9989 -0.0138
vn 0.0453 0.9988 0.0164
vn 0.0594 0.9968 0.0539
vn 0.0235 0.9721 -0.2332
vn 0.0464 0.9587 -0.2805
vn -0.0201 0.8949 -0.4458
vn 0.0956 0.9748 -0.2016
vn 0.1355 0.9815 -0.1355
vn -0.0371 0.9677 -0.2494
vn 0.1019 0.9946 -0.0209
vn 0.0468 0.9382 -0.3429
vn -0.2061 0.9552 -0.2123
vn 0.0151 0.9988 0.0466
vn 0.0453 0.9979 0.0465
vn 0.0452 0.9960 0.0766
vn -0.1262 0.9918 0.0217
vn -0.0938 0.9953 0.0218
vn -0.1931 0.9770 -0.0905
vn 0.0510 0.8894 -0.4543
vn 0.0143 0.9973 0.0715
vn 0.0429 0.9965 0.0714
vn 0.0428 0.9941 0.0998
vn -0.0331 0.9943 -0.1009
vn -0.0237 0.9946 -0.1009
vn -0.0237 0.9955 -0.0916
vn 0.1086 0.9910 -0.0776
vn 0.0778 0.9939 -0.0778
vn 0.0776 0.9910 -0.1086
vn 0.2695 0.9245 0.2695
vn -0.1714 0.9825 -0.0735
vn -0.1233 0.9896 -0.0740
vn -0.1236 0.9920 -0.0247
vn 0.0913 0.9916 -0.0916
vn 0.0466 0.9900 -0.1330
vn 0.0690 0.9881 -0.1374
vn 0.3251 0.8994 0.2923
vn -0.0180 0.9995 0.0249
vn -0.0538 0.9982 0.0249
vn -0.0538 0.9985 -0.0110
vn -0.0115 0.9993 0.0345
vn -0.0345 0.9988 0.0345
vn -0.0345 0.9993 0.0115
vn 0.0000 -1.0000 0.0000
vn 1.0000 0.0000 0.0000
vn -0.0000 -0.0000 1.0000
vn -1.0000 -0.0000 -0.0000
vn 0.0000 0.0000 -1.0000
vn 0.0000 1.0000 0.0000
usemtl Material.001
s off
f 293//1 145//1 7//1 88//1
f 292//2 94//2 11//2 92//2
f 288//3 111//3 26//3 152//3
f 287//4 129//4 17//4 153//4
f 285//5 115//5 27//5 156//5
f 284//6 107//6 23//6 157//6
f 283//7 118//7 20//7 104//7
f 282//8 119//8 28//8 160//8
f 281//9 106//9 22//9 161//9
f 280//10 122//10 16//10 100//10
f 279//11 123//11 29//11 164//11
f 278//12 133//12 21//12 165//12
f 277//13 166//13 69//13 125//13
f 274//14 170//14 68//14 124//14
f 271//15 174//15 44//15 140//15
f 270//16 175//16 72//16 176//16
f 269//17 162//17 66//17 177//17
f 268//18 178//18 65//18 121//18
f 267//19 179//19 73//19 180//19
f 266//20 146//20 50//20 181//20
f 265//21 182//21 64//21 120//21
f 262//22 186//22 48//22 144//22
f 261//23 187//23 75//23 188//23
f 260//24 158//24 62//24 189//24
f 259//25 190//25 61//25 117//25
f 258//26 191//26 76//26 192//26
f 257//27 147//27 51//27 193//27
f 256//28 194//28 60//28 116//28
f 255//29 195//29 77//29 196//29
f 254//30 155//30 59//30 197//30
f 252//31 199//31 78//31 200//31
f 251//32 154//32 58//32 201//32
f 250//33 202//33 57//33 113//33
f 249//34 203//34 79//34 204//34
f 248//35 89//35 33//35 205//35
f 247//36 206//36 56//36 112//36
f 246//37 207//37 80//37 208//37
f 245//38 151//38 55//38 209//38
f 243//39 211//39 81//39 212//39
f 242//40 150//40 54//40 213//40
f 240//41 215//41 82//41 216//41
f 239//42 101//42 45//42 217//42
f 237//43 219//43 83//43 220//43
f 236//44 135//44 39//44 221//44
f 235//45 222//45 36//45 132//45
f 234//46 223//46 84//46 224//46
f 233//47 134//47 38//47 225//47
f 232//48 226//48 32//48 128//48
f 231//49 227//49 85//49 228//49
f 230//50 105//50 49//50 229//50
f 227//51 230//51 229//51 85//51
f 69//52 165//52 230//52 227//52
f 165//53 21//53 105//53 230//53
f 162//54 231//54 228//54 66//54
f 29//55 125//55 231//55 162//55
f 125//56 69//56 227//56 231//56
f 122//57 232//57 128//57 16//57
f 66//58 228//58 232//58 122//58
f 228//59 85//59 226//59 232//59
f 223//60 233//60 225//60 84//60
f 65//61 161//61 233//61 223//61
f 161//62 22//62 134//62 233//62
f 158//63 234//63 224//63 62//63
f 28//64 121//64 234//64 158//64
f 121//65 65//65 223//65 234//65
f 118//66 235//66 132//66 20//66
f 62//67 224//67 235//67 118//67
f 224//68 84//68 222//68 235//68
f 219//69 236//69 221//69 83//69
f 61//70 157//70 236//70 219//70
f 157//71 23//71 135//71 236//71
f 154//72 237//72 220//72 58//72
f 27//73 117//73 237//73 154//73
f 117//74 61//74 219//74 237//74
f 58//75 220//75 238//75 114//75
f 215//76 239//76 217//76 82//76
f 57//77 153//77 239//77 215//77
f 153//78 17//78 101//78 239//78
f 150//79 240//79 216//79 54//79
f 26//80 113//80 240//80 150//80
f 113//81 57//81 215//81 240//81
f 54//82 216//82 241//82 110//82
f 216//83 82//83 214//83 241//83
f 211//84 242//84 213//84 81//84
f 56//85 152//85 242//85 211//85
f 152//86 26//86 150//86 242//86
f 135//87 243//87 212//87 39//87
f 23//88 112//88 243//88 135//88
f 112//89 56//89 211//89 243//89
f 207//90 245//90 209//90 80//90
f 43//91 99//91 245//91 207//91
f 99//92 15//92 151//92 245//92
f 147//93 246//93 208//93 51//93
f 10//94 139//94 246//94 147//94
f 139//95 43//95 207//95 246//95
f 107//96 247//96 112//96 23//96
f 51//97 208//97 247//97 107//97
f 208//98 80//98 206//98 247//98
f 203//99 248//99 205//99 79//99
f 31//100 87//100 248//100 203//100
f 87//101 8//101 89//101 248//101
f 151//102 249//102 204//102 55//102
f 15//103 127//103 249//103 151//103
f 127//104 31//104 203//104 249//104
f 111//105 250//105 113//105 26//105
f 55//106 204//106 250//106 111//106
f 204//107 79//107 202//107 250//107
f 199//108 251//108 201//108 78//108
f 60//109 156//109 251//109 199//109
f 156//110 27//110 154//110 251//110
f 130//111 252//111 200//111 34//111
f 18//112 116//112 252//112 130//112
f 116//113 60//113 199//113 252//113
f 195//114 254//114 197//114 77//114
f 47//115 103//115 254//115 195//115
f 103//116 19//116 155//116 254//116
f 142//117 255//117 196//117 46//117
f 5//118 143//118 255//118 142//118
f 143//119 47//119 195//119 255//119
f 102//120 256//120 116//120 18//120
f 46//121 196//121 256//121 102//121
f 196//122 77//122 194//122 256//122
f 191//123 257//123 193//123 76//123
f 35//124 91//124 257//124 191//124
f 91//125 10//125 147//125 257//125
f 155//126 258//126 192//126 59//126
f 19//127 131//127 258//127 155//127
f 131//128 35//128 191//128 258//128
f 115//129 259//129 117//129 27//129
f 59//130 192//130 259//130 115//130
f 192//131 76//131 190//131 259//131
f 187//132 260//132 189//132 75//132
f 64//133 160//133 260//133 187//133
f 160//134 28//134 158//134 260//134
f 126//135 261//135 188//135 30//135
f 14//136 120//136 261//136 126//136
f 120//137 64//137 187//137 261//137
f 86//138 262//138 144//138 6//138
f 30//139 188//139 262//139 86//139
f 188//140 75//140 186//140 262//140
f 138//141 264//141 184//141 42//141
f 98//142 265//142 120//142 14//142
f 42//143 184//143 265//143 98//143
f 184//144 74//144 182//144 265//144
f 179//145 266//145 181//145 73//145
f 119//146 268//146 121//146 28//146
f 63//147 180//147 268//147 119//147
f 180//148 73//148 178//148 268//148
f 175//149 269//149 177//149 72//149
f 68//150 164//150 269//150 175//150
f 164//151 29//151 162//151 269//151
f 134//152 270//152 176//152 38//152
f 22//153 124//153 270//153 134//153
f 124//154 68//154 175//154 270//154
f 94//155 271//155 140//155 11//155
f 38//156 176//156 271//156 94//156
f 176//157 72//157 174//157 271//157
f 106//158 274//158 124//158 22//158
f 50//159 172//159 274//159 106//159
f 172//160 71//160 170//160 274//160
f 123//161 277//161 125//161 29//161
f 166//162 278//162 165//162 69//162
f 70//163 169//163 278//163 166//163
f 169//164 37//164 133//164 278//164
f 170//165 279//165 164//165 68//165
f 71//166 173//166 279//166 170//166
f 173//167 67//167 123//167 279//167
f 174//168 280//168 100//168 44//168
f 72//169 177//169 280//169 174//169
f 177//170 66//170 122//170 280//170
f 178//171 281//171 161//171 65//171
f 73//172 181//172 281//172 178//172
f 181//173 50//173 106//173 281//173
f 182//174 282//174 160//174 64//174
f 186//175 283//175 104//175 48//175
f 75//176 189//176 283//176 186//176
f 189//177 62//177 118//177 283//177
f 190//178 284//178 157//178 61//178
f 76//179 193//179 284//179 190//179
f 193//180 51//180 107//180 284//180
f 194//181 285//181 156//181 60//181
f 77//182 197//182 285//182 194//182
f 197//183 59//183 115//183 285//183
f 201//184 58//184 114//184 286//184
f 202//185 287//185 153//185 57//185
f 79//186 205//186 287//186 202//186
f 205//187 33//187 129//187 287//187
f 206//188 288//188 152//188 56//188
f 80//189 209//189 288//189 206//189
f 209//190 55//190 111//190 288//190
f 213//191 54//191 110//191 289//191
f 222//192 292//192 92//192 36//192
f 84//193 225//193 292//193 222//193
f 225//194 38//194 94//194 292//194
f 226//195 293//195 88//195 32//195
f 85//196 229//196 293//196 226//196
f 229//197 49//197 145//197 293//197
usemtl Material.002
f 1//198 2//198 3//198 4//198
f 1//199 5//199 142//199 46//199 102//199 18//199 130//199 34//199 90//199 9//199 138//199 42//199 98//199 14//199 126//199 30//199 86//199 6//199 2//199
f 2//200 6//200 144//200 48//200 104//200 20//200 132//200 36//200 92//200 11//200 140//200 44//200 100//200 16//200 128//200 32//200 88//200 7//200 3//200
f 3//201 7//201 145//201 49//201 105//201 21//201 133//201 37//201 93//201 12//201 141//201 45//201 101//201 17//201 129//201 33//201 89//201 8//201 4//201
f 5//202 1//202 4//202 8//202 87//202 31//202 127//202 15//202 99//202 43//202 139//202 10//202 91//202 35//202 131//202 19//202 103//202 47//202 143//202
usemtl Material.003
f 291//203 95//203 13//203 148//203
f 290//203 141//203 12//203 149//203
f 289//203 110//203 25//203 137//203
f 286//203 114//203 24//203 136//203
f 276//203 167//203 70//203 168//203
f 275//203 93//203 37//203 169//203
f 273//203 171//203 71//203 172//203
f 272//203 163//203 67//203 173//203
f 264//203 183//203 74//203 184//203
f 263//203 159//203 63//203 185//203
f 253//203 198//203 40//203 96//203
f 244//203 210//203 41//203 97//203
f 241//203 214//203 53//203 109//203
f 238//203 218//203 52//203 108//203
f 114//203 238//203 108//203 24//203
f 220//203 83//203 218//203 238//203
f 110//203 241//203 109//203 25//203
f 95//203 244//203 97//203 13//203
f 39//203 212//203 244//203 95//203
f 212//203 81//203 210//203 244//203
f 90//203 253//203 96//203 9//203
f 34//203 200//203 253//203 90//203
f 200//203 78//203 198//203 253//203
f 183//203 263//203 185//203 74//203
f 40//203 136//203 263//203 183//203
f 136//203 24//203 159//203 263//203
f 9//203 96//203 264//203 138//203
f 96//203 40//203 183//203 264//203
f 52//203 148//203 266//203 179//203
f 148//203 13//203 146//203 266//203
f 159//203 267//203 180//203 63//203
f 24//203 108//203 267//203 159//203
f 108//203 52//203 179//203 267//203
f 171//203 272//203 173//203 71//203
f 41//203 137//203 272//203 171//203
f 137//203 25//203 163//203 272//203
f 146//203 273//203 172//203 50//203
f 13//203 97//203 273//203 146//203
f 97//203 41//203 171//203 273//203
f 167//203 275//203 169//203 70//203
f 53//203 149//203 275//203 167//203
f 149//203 12//203 93//203 275//203
f 163//203 276//203 168//203 67//203
f 25//203 109//203 276//203 163//203
f 109//203 53//203 167//203 276//203
f 67//203 168//203 277//203 123//203
f 168//203 70//203 166//203 277//203
f 74//203 185//203 282//203 182//203
f 185//203 63//203 119//203 282//203
f 198//203 286//203 136//203 40//203
f 78//203 201//203 286//203 198//203
f 210//203 289//203 137//203 41//203
f 81//203 213//203 289//203 210//203
f 214//203 290//203 149//203 53//203
f 82//203 217//203 290//203 214//203
f 217//203 45//203 141//203 290//203
f 218//203 291//203 148//203 52//203
f 83//203 221//203 291//203 218//203
f 221//203 39//203 95//203 291//203
